<mxfile host="app.diagrams.net" agent="Mozilla/5.0 (Windows NT 10.0; Win64; x64) AppleWebKit/537.36 (KHTML, like Gecko) Chrome/109.0.0.0 Safari/537.36" version="24.9.1">
  <diagram name="PÃ¡gina-1" id="7GCVgzm7ErauwXr5quWZ">
    <mxGraphModel dx="-460" dy="744" grid="1" gridSize="10" guides="1" tooltips="1" connect="1" arrows="1" fold="1" page="1" pageScale="1" pageWidth="827" pageHeight="1169" math="0" shadow="0">
      <root>
        <mxCell id="0" />
        <mxCell id="1" parent="0" />
        <mxCell id="i_QaKZoOb58a8kv5tK3f-2" value="&lt;p style=&quot;margin:0px;margin-top:4px;text-align:center;&quot;&gt;&lt;b&gt;Notas&lt;/b&gt;&lt;/p&gt;&lt;hr size=&quot;1&quot; style=&quot;border-style:solid;&quot;&gt;&lt;p style=&quot;margin:0px;margin-left:4px;&quot;&gt;- instance: Notas&amp;nbsp;&lt;br&gt;- escola: Escola&amp;nbsp;&lt;br&gt;- disciplinas: ArrayList&amp;lt;Disciplina&amp;gt;&lt;br&gt;&lt;/p&gt;&lt;hr size=&quot;1&quot; style=&quot;border-style:solid;&quot;&gt;&lt;p style=&quot;margin:0px;margin-left:4px;&quot;&gt;+ getInstance(disciplinas: ArrayList&amp;lt;Disciplina&amp;gt;): Notas&amp;nbsp;&lt;br&gt;+ getNomeProfessor(disciplina: Disciplina, nomeProfessor: String): Professor&amp;nbsp;&lt;br&gt;+ getNomeTurma(disciplina: Disciplina, nomeTurma: String): Turma&amp;nbsp;&lt;br&gt;+ getNomeProva(disciplina: Disciplina, nomeProva: String): Prova&amp;nbsp;&lt;br&gt;+ getNomeTrabalho(disciplina: Disciplina, nomeTrabalho: String): Trabalho&amp;nbsp;&lt;br&gt;+ getNomePontoExtra(disciplina: Disciplina, nomePontoExtra: String): PontoExtra&amp;nbsp;&lt;br&gt;+ getNomeAluno(turma: Turma, nomeAluno: String): Aluno&amp;nbsp;&lt;br&gt;+ removerProvaDisciplina(nomeDisciplina: String, nomeProfessor: String, nomeProva: String, nomeTurma: String, peso: float): void&amp;nbsp;&lt;br&gt;+ removerTrabalhoDisciplina(nomeDisciplina: String, nomeProfessor: String, nomeTrabalho: String, nomeTurma: String, peso: float): void&amp;nbsp;&lt;br&gt;+ removerPontoExtraDisciplina(nomeDisciplina: String, nomeProfessor: String, nomePontoExtra: String, nomeTurma: String): void&amp;nbsp;&lt;br&gt;+ adicionarProvaDisciplina(nomeDisciplina: String, nomeProfessor: String, nomeProva: String, nomeTurma: String, peso: float): void&amp;nbsp;&lt;br&gt;+ adicionarTrabalhoDisciplina(nomeDisciplina: String, nomeProfessor: String, nomeTurma: String, nomeTrabalho: String, peso: float): void&amp;nbsp;&lt;br&gt;+ adicionarPontoExtraDisciplina(nomeDisciplina: String, nomeProfessor: String, nomePontoExtra: String, nomeTurma: String, valorMaximo: float): void&amp;nbsp;&lt;br&gt;+ adicionarNotaProva(nomeAluno: String, nomeDisciplina: String, nomeProfessor: String, nomeProva: String, notaProva: float, nomeTurma: String): void&amp;nbsp;&lt;br&gt;+ adicionarNotaTrabalho(nomeAluno: String, nomeDisciplina: String, nomeProfessor: String, nomeTrabalho: String, notaTrabalho: float, nomeTurma: String): void&amp;nbsp;&lt;br&gt;+ adicionarNotaPontoExtra(nomeAluno: String, nomeDisciplina: String, nomeProfessor: String, nomePontoExtra: String, nomeTurma: String, valor: float): void&amp;nbsp;&lt;br&gt;+ removerNotaProva(nomeAluno: String, nomeDisciplina: String, nomeProfessor: String, nomeProva: String, notaProva: float, nomeTurma: String): void&amp;nbsp;&lt;br&gt;+ removerNotaTrabalho(nomeAluno: String, nomeDisciplina: String, nomeProfessor: String, nomeTrabalho: String, notaTrabalho: float, nomeTurma: String): void&amp;nbsp;&lt;br&gt;+ removerNotaPontoExtra(nomeAluno: String, nomeDisciplina: String, nomeProfessor: String, nomePontoExtra: String, nomeTurma: String, valor: float): void&amp;nbsp;&lt;br&gt;+ removerTrabalhos(nomeDisciplina: String, nomeProfessor: String, nomeTurma: String): void&lt;br&gt;&lt;/p&gt;" style="verticalAlign=middle;align=left;overflow=fill;html=1;whiteSpace=wrap;fillColor=none;" vertex="1" parent="1">
          <mxGeometry x="1900" y="690" width="470" height="570" as="geometry" />
        </mxCell>
      </root>
    </mxGraphModel>
  </diagram>
</mxfile>
